<svg width="934" height="345" viewBox="0 0 934 345" fill="none" xmlns="http://www.w3.org/2000/svg">
<path d="M457.5 205.5C457.5 199.425 462.425 194.5 468.5 194.5C474.575 194.5 479.5 199.425 479.5 205.5V230.5C479.5 236.575 474.575 241.5 468.5 241.5C462.425 241.5 457.5 236.575 457.5 230.5V205.5Z" fill="#FFDD09" stroke="black" stroke-width="3"/>
<path d="M282.5 222.5C282.5 216.425 287.425 211.5 293.5 211.5C299.575 211.5 304.5 216.425 304.5 222.5C304.5 228.575 299.575 233.5 293.5 233.5C287.425 233.5 282.5 228.575 282.5 222.5Z" fill="#FFDD09" stroke="black" stroke-width="3"/>
<path d="M357.5 222.5C357.5 216.425 362.425 211.5 368.5 211.5C374.575 211.5 379.5 216.425 379.5 222.5C379.5 228.575 374.575 233.5 368.5 233.5C362.425 233.5 357.5 228.575 357.5 222.5Z" fill="#FFDD09" stroke="black" stroke-width="3"/>
<path d="M320 81.6555V80.7903L319.251 80.3571C312.223 76.2916 307.5 68.6964 307.5 60C307.5 47.0213 318.021 36.5 331 36.5C343.979 36.5 354.5 47.0213 354.5 60C354.5 68.6964 349.777 76.2916 342.749 80.3571L342 80.7903V81.6555V110V111.5H343.5H406C425.883 111.5 442 127.618 442 147.5V272.5C442 292.383 425.883 308.5 406 308.5H256C236.118 308.5 220 292.383 220 272.5V147.5C220 127.618 236.118 111.5 256 111.5H318.5H320V110V81.6555ZM274.616 134.329L274.202 133.5H273.275H256C248.268 133.5 242 139.768 242 147.5V272.5C242 280.232 248.268 286.5 256 286.5H406C413.732 286.5 420 280.232 420 272.5V147.5C420 139.768 413.732 133.5 406 133.5H388.725H387.798L387.383 134.329L369.293 170.509C365.312 178.471 357.176 183.5 348.275 183.5H313.725C304.824 183.5 296.687 178.471 292.706 170.509L291.365 171.18L292.706 170.509L274.616 134.329ZM348.275 161.5H349.202L349.617 160.671L362.117 135.671L363.202 133.5H360.775H301.225H298.798L299.884 135.671L312.383 160.671L312.798 161.5H313.725H348.275Z" fill="#FFDD09" stroke="black" stroke-width="3"/>
<path d="M182.5 210C182.5 203.925 187.425 199 193.5 199C199.575 199 204.5 203.925 204.5 210V235C204.5 241.075 199.575 246 193.5 246C187.425 246 182.5 241.075 182.5 235V210Z" fill="#FFDD09" stroke="black" stroke-width="3"/>
<g filter="url(#filter0_di_362_165)">
<mask id="path-6-outside-1_362_165" maskUnits="userSpaceOnUse" x="530" y="109" width="225" height="74" fill="black">
<rect fill="white" x="530" y="109" width="225" height="74"/>
<path d="M533.07 135.89V133.37H549.81V140.75C553.47 135.23 557.82 132.47 562.86 132.47C564.72 132.47 566.52 133.07 568.26 134.27C570 135.41 571.44 137.57 572.58 140.75L564.57 145.07C563.73 142.61 562.74 140.96 561.6 140.12C560.52 139.22 559.35 138.77 558.09 138.77C556.77 138.77 555.48 139.19 554.22 140.03C552.96 140.87 551.67 142.43 550.35 144.71V171.44C550.35 173.48 550.44 174.71 550.62 175.13C550.8 175.49 551.37 175.73 552.33 175.85L559.08 176.48V179H533.07V176.48L538.02 175.85C538.98 175.73 539.55 175.49 539.73 175.13C539.91 174.71 540 173.48 540 171.44V140.93C540 138.89 539.91 137.69 539.73 137.33C539.55 136.91 538.98 136.64 538.02 136.52L533.07 135.89ZM615.354 155.24V157.04C615.354 163.94 613.554 169.49 609.954 173.69C606.414 177.83 601.344 179.9 594.744 179.9C588.144 179.9 583.044 177.83 579.444 173.69C575.904 169.49 574.134 163.94 574.134 157.04V155.24C574.134 148.34 575.904 142.82 579.444 138.68C583.044 134.54 588.144 132.47 594.744 132.47C601.344 132.47 606.414 134.54 609.954 138.68C613.554 142.82 615.354 148.34 615.354 155.24ZM604.284 153.44C604.284 147.02 603.474 142.46 601.854 139.76C600.234 137 597.864 135.62 594.744 135.62C591.684 135.62 589.314 137 587.634 139.76C586.014 142.46 585.204 147.02 585.204 153.44V158.84C585.204 165.2 586.014 169.79 587.634 172.61C589.314 175.37 591.684 176.75 594.744 176.75C597.864 176.75 600.234 175.37 601.854 172.61C603.474 169.79 604.284 165.2 604.284 158.84V153.44ZM618.911 114.92V112.4H636.191V140.03C637.811 137.51 639.611 135.62 641.591 134.36C643.631 133.1 645.971 132.47 648.611 132.47C653.651 132.47 657.641 134.48 660.581 138.5C663.581 142.46 665.081 148.04 665.081 155.24V157.04C665.081 164 663.371 169.55 659.951 173.69C656.531 177.83 651.791 179.9 645.731 179.9C641.111 179.9 637.331 178.52 634.391 175.76C633.311 176.18 632.261 176.72 631.241 177.38C630.281 177.98 629.291 178.67 628.271 179.45H625.841V119.96C625.841 117.92 625.751 116.72 625.571 116.36C625.391 115.94 624.821 115.67 623.861 115.55L618.911 114.92ZM646.271 136.43C644.771 136.43 643.181 137.06 641.501 138.32C639.881 139.52 638.111 142.01 636.191 145.79V172.97C638.471 175.25 641.261 176.39 644.561 176.39C647.921 176.39 650.321 174.92 651.761 171.98C653.261 168.98 654.011 164.9 654.011 159.74V152.54C654.011 146.96 653.321 142.88 651.941 140.3C650.561 137.72 648.671 136.43 646.271 136.43ZM714.234 155.24V157.04C714.234 163.94 712.434 169.49 708.834 173.69C705.294 177.83 700.224 179.9 693.624 179.9C687.024 179.9 681.924 177.83 678.324 173.69C674.784 169.49 673.014 163.94 673.014 157.04V155.24C673.014 148.34 674.784 142.82 678.324 138.68C681.924 134.54 687.024 132.47 693.624 132.47C700.224 132.47 705.294 134.54 708.834 138.68C712.434 142.82 714.234 148.34 714.234 155.24ZM703.164 153.44C703.164 147.02 702.354 142.46 700.734 139.76C699.114 137 696.744 135.62 693.624 135.62C690.564 135.62 688.194 137 686.514 139.76C684.894 142.46 684.084 147.02 684.084 153.44V158.84C684.084 165.2 684.894 169.79 686.514 172.61C688.194 175.37 690.564 176.75 693.624 176.75C696.744 176.75 699.114 175.37 700.734 172.61C702.354 169.79 703.164 165.2 703.164 158.84V153.44ZM751.181 169.64C750.401 173.3 748.901 175.94 746.681 177.56C744.521 179.12 741.881 179.9 738.761 179.9C735.581 179.9 732.971 179.21 730.931 177.83C728.891 176.39 727.391 174.5 726.431 172.16C725.471 169.82 724.991 167.33 724.991 164.69V140.93C724.991 138.89 724.901 137.69 724.721 137.33C724.541 136.91 723.971 136.64 723.011 136.52L718.061 135.89V133.37H724.991V122.93L735.341 120.86V133.37H749.741V136.52H735.341V166.49C735.341 170.33 735.821 173 736.781 174.5C737.741 175.94 738.971 176.66 740.471 176.66C742.031 176.66 743.231 176.06 744.071 174.86C744.971 173.66 745.541 171.47 745.781 168.29L751.181 169.64Z"/>
</mask>
<path d="M533.07 135.89V133.37H549.81V140.75C553.47 135.23 557.82 132.47 562.86 132.47C564.72 132.47 566.52 133.07 568.26 134.27C570 135.41 571.44 137.57 572.58 140.75L564.57 145.07C563.73 142.61 562.74 140.96 561.6 140.12C560.52 139.22 559.35 138.77 558.09 138.77C556.77 138.77 555.48 139.19 554.22 140.03C552.96 140.87 551.67 142.43 550.35 144.71V171.44C550.35 173.48 550.44 174.71 550.62 175.13C550.8 175.49 551.37 175.73 552.33 175.85L559.08 176.48V179H533.07V176.48L538.02 175.85C538.98 175.73 539.55 175.49 539.73 175.13C539.91 174.71 540 173.48 540 171.44V140.93C540 138.89 539.91 137.69 539.73 137.33C539.55 136.91 538.98 136.64 538.02 136.52L533.07 135.89ZM615.354 155.24V157.04C615.354 163.94 613.554 169.49 609.954 173.69C606.414 177.83 601.344 179.9 594.744 179.9C588.144 179.9 583.044 177.83 579.444 173.69C575.904 169.49 574.134 163.94 574.134 157.04V155.24C574.134 148.34 575.904 142.82 579.444 138.68C583.044 134.54 588.144 132.47 594.744 132.47C601.344 132.47 606.414 134.54 609.954 138.68C613.554 142.82 615.354 148.34 615.354 155.24ZM604.284 153.44C604.284 147.02 603.474 142.46 601.854 139.76C600.234 137 597.864 135.62 594.744 135.62C591.684 135.62 589.314 137 587.634 139.76C586.014 142.46 585.204 147.02 585.204 153.44V158.84C585.204 165.2 586.014 169.79 587.634 172.61C589.314 175.37 591.684 176.75 594.744 176.75C597.864 176.75 600.234 175.37 601.854 172.61C603.474 169.79 604.284 165.2 604.284 158.84V153.44ZM618.911 114.92V112.4H636.191V140.03C637.811 137.51 639.611 135.62 641.591 134.36C643.631 133.1 645.971 132.47 648.611 132.47C653.651 132.47 657.641 134.48 660.581 138.5C663.581 142.46 665.081 148.04 665.081 155.24V157.04C665.081 164 663.371 169.55 659.951 173.69C656.531 177.83 651.791 179.9 645.731 179.9C641.111 179.9 637.331 178.52 634.391 175.76C633.311 176.18 632.261 176.72 631.241 177.38C630.281 177.98 629.291 178.67 628.271 179.45H625.841V119.96C625.841 117.92 625.751 116.72 625.571 116.36C625.391 115.94 624.821 115.67 623.861 115.55L618.911 114.92ZM646.271 136.43C644.771 136.43 643.181 137.06 641.501 138.32C639.881 139.52 638.111 142.01 636.191 145.79V172.97C638.471 175.25 641.261 176.39 644.561 176.39C647.921 176.39 650.321 174.92 651.761 171.98C653.261 168.98 654.011 164.9 654.011 159.74V152.54C654.011 146.96 653.321 142.88 651.941 140.3C650.561 137.72 648.671 136.43 646.271 136.43ZM714.234 155.24V157.04C714.234 163.94 712.434 169.49 708.834 173.69C705.294 177.83 700.224 179.9 693.624 179.9C687.024 179.9 681.924 177.83 678.324 173.69C674.784 169.49 673.014 163.94 673.014 157.04V155.24C673.014 148.34 674.784 142.82 678.324 138.68C681.924 134.54 687.024 132.47 693.624 132.47C700.224 132.47 705.294 134.54 708.834 138.68C712.434 142.82 714.234 148.34 714.234 155.24ZM703.164 153.44C703.164 147.02 702.354 142.46 700.734 139.76C699.114 137 696.744 135.62 693.624 135.62C690.564 135.62 688.194 137 686.514 139.76C684.894 142.46 684.084 147.02 684.084 153.44V158.84C684.084 165.2 684.894 169.79 686.514 172.61C688.194 175.37 690.564 176.75 693.624 176.75C696.744 176.75 699.114 175.37 700.734 172.61C702.354 169.79 703.164 165.2 703.164 158.84V153.44ZM751.181 169.64C750.401 173.3 748.901 175.94 746.681 177.56C744.521 179.12 741.881 179.9 738.761 179.9C735.581 179.9 732.971 179.21 730.931 177.83C728.891 176.39 727.391 174.5 726.431 172.16C725.471 169.82 724.991 167.33 724.991 164.69V140.93C724.991 138.89 724.901 137.69 724.721 137.33C724.541 136.91 723.971 136.64 723.011 136.52L718.061 135.89V133.37H724.991V122.93L735.341 120.86V133.37H749.741V136.52H735.341V166.49C735.341 170.33 735.821 173 736.781 174.5C737.741 175.94 738.971 176.66 740.471 176.66C742.031 176.66 743.231 176.06 744.071 174.86C744.971 173.66 745.541 171.47 745.781 168.29L751.181 169.64Z" fill="#FFDD09"/>
<path d="M533.07 135.89H530.07V138.532L532.691 138.866L533.07 135.89ZM533.07 133.37V130.37H530.07V133.37H533.07ZM549.81 133.37H552.81V130.37H549.81V133.37ZM549.81 140.75H546.81V150.703L552.31 142.408L549.81 140.75ZM568.26 134.27L566.557 136.74L566.586 136.76L566.616 136.779L568.26 134.27ZM572.58 140.75L574.004 143.39L576.275 142.166L575.404 139.738L572.58 140.75ZM564.57 145.07L561.731 146.039L562.876 149.392L565.994 147.71L564.57 145.07ZM561.6 140.12L559.679 142.425L559.748 142.482L559.82 142.535L561.6 140.12ZM550.35 144.71L547.754 143.207L547.35 143.904V144.71H550.35ZM550.62 175.13L547.863 176.312L547.897 176.393L547.937 176.472L550.62 175.13ZM552.33 175.85L551.958 178.827L552.004 178.833L552.051 178.837L552.33 175.85ZM559.08 176.48H562.08V173.747L559.359 173.493L559.08 176.48ZM559.08 179V182H562.08V179H559.08ZM533.07 179H530.07V182H533.07V179ZM533.07 176.48L532.691 173.504L530.07 173.838V176.48H533.07ZM538.02 175.85L537.648 172.873L537.641 172.874L538.02 175.85ZM539.73 175.13L542.413 176.472L542.453 176.393L542.487 176.312L539.73 175.13ZM539.73 137.33L536.973 138.512L537.007 138.593L537.047 138.672L539.73 137.33ZM538.02 136.52L537.641 139.496L537.648 139.497L538.02 136.52ZM536.07 135.89V133.37H530.07V135.89H536.07ZM533.07 136.37H549.81V130.37H533.07V136.37ZM546.81 133.37V140.75H552.81V133.37H546.81ZM552.31 142.408C555.609 137.432 559.133 135.47 562.86 135.47V129.47C556.507 129.47 551.331 133.028 547.31 139.092L552.31 142.408ZM562.86 135.47C564.031 135.47 565.247 135.836 566.557 136.74L569.963 131.8C567.793 130.304 565.409 129.47 562.86 129.47V135.47ZM566.616 136.779C567.563 137.4 568.71 138.844 569.756 141.762L575.404 139.738C574.17 136.296 572.437 133.42 569.904 131.761L566.616 136.779ZM571.156 138.11L563.146 142.43L565.994 147.71L574.004 143.39L571.156 138.11ZM567.409 144.101C566.514 141.48 565.276 139.102 563.38 137.705L559.82 142.535C560.204 142.818 560.946 143.74 561.731 146.039L567.409 144.101ZM563.521 137.815C561.968 136.521 560.134 135.77 558.09 135.77V141.77C558.566 141.77 559.072 141.919 559.679 142.425L563.521 137.815ZM558.09 135.77C556.094 135.77 554.234 136.415 552.556 137.534L555.884 142.526C556.726 141.965 557.446 141.77 558.09 141.77V135.77ZM552.556 137.534C550.727 138.753 549.158 140.782 547.754 143.207L552.946 146.213C554.182 144.078 555.193 142.987 555.884 142.526L552.556 137.534ZM547.35 144.71V171.44H553.35V144.71H547.35ZM547.35 171.44C547.35 172.493 547.373 173.392 547.425 174.111C547.467 174.677 547.547 175.576 547.863 176.312L553.377 173.948C553.477 174.18 553.484 174.308 553.462 174.179C553.448 174.091 553.428 173.93 553.41 173.674C553.372 173.163 553.35 172.427 553.35 171.44H547.35ZM547.937 176.472C548.48 177.558 549.412 178.09 550.018 178.345C550.657 178.614 551.34 178.75 551.958 178.827L552.702 172.873C552.36 172.83 552.278 172.786 552.347 172.815C552.39 172.833 552.528 172.896 552.702 173.035C552.883 173.179 553.12 173.422 553.303 173.788L547.937 176.472ZM552.051 178.837L558.801 179.467L559.359 173.493L552.609 172.863L552.051 178.837ZM556.08 176.48V179H562.08V176.48H556.08ZM559.08 176H533.07V182H559.08V176ZM536.07 179V176.48H530.07V179H536.07ZM533.449 179.456L538.399 178.826L537.641 172.874L532.691 173.504L533.449 179.456ZM538.392 178.827C539.01 178.75 539.693 178.614 540.332 178.345C540.938 178.09 541.87 177.558 542.413 176.472L537.047 173.788C537.23 173.422 537.467 173.179 537.648 173.035C537.822 172.896 537.96 172.833 538.003 172.815C538.072 172.786 537.99 172.83 537.648 172.873L538.392 178.827ZM542.487 176.312C542.803 175.576 542.883 174.677 542.925 174.111C542.977 173.392 543 172.493 543 171.44H537C537 172.427 536.978 173.163 536.94 173.674C536.922 173.93 536.902 174.091 536.888 174.179C536.866 174.308 536.873 174.18 536.973 173.948L542.487 176.312ZM543 171.44V140.93H537V171.44H543ZM543 140.93C543 139.879 542.977 138.984 542.924 138.276C542.898 137.923 542.86 137.571 542.804 137.246C542.759 136.984 542.662 136.485 542.413 135.988L537.047 138.672C536.952 138.483 536.912 138.341 536.902 138.303C536.888 138.254 536.887 138.238 536.892 138.269C536.903 138.334 536.922 138.477 536.941 138.724C536.978 139.216 537 139.941 537 140.93H543ZM542.487 136.148C542.016 135.048 541.146 134.43 540.452 134.101C539.768 133.777 539.038 133.624 538.392 133.543L537.648 139.497C537.962 139.536 537.997 139.578 537.883 139.524C537.759 139.465 537.264 139.192 536.973 138.512L542.487 136.148ZM538.399 133.544L533.449 132.914L532.691 138.866L537.641 139.496L538.399 133.544ZM609.954 173.69L607.676 171.738L607.674 171.74L609.954 173.69ZM579.444 173.69L577.15 175.623L577.165 175.641L577.18 175.659L579.444 173.69ZM579.444 138.68L577.18 136.711L577.172 136.721L577.164 136.73L579.444 138.68ZM609.954 138.68L607.674 140.63L607.682 140.639L607.69 140.649L609.954 138.68ZM601.854 139.76L599.267 141.279L599.274 141.291L599.281 141.303L601.854 139.76ZM587.634 139.76L585.071 138.2L585.066 138.208L585.061 138.217L587.634 139.76ZM587.634 172.61L585.033 174.104L585.052 174.137L585.071 174.17L587.634 172.61ZM601.854 172.61L604.441 174.129L604.448 174.117L604.455 174.104L601.854 172.61ZM612.354 155.24V157.04H618.354V155.24H612.354ZM612.354 157.04C612.354 163.407 610.703 168.206 607.676 171.738L612.232 175.642C616.404 170.774 618.354 164.473 618.354 157.04H612.354ZM607.674 171.74C604.824 175.073 600.67 176.9 594.744 176.9V182.9C602.018 182.9 608.004 180.587 612.234 175.64L607.674 171.74ZM594.744 176.9C588.819 176.9 584.623 175.073 581.708 171.721L577.18 175.659C581.465 180.587 587.468 182.9 594.744 182.9V176.9ZM581.738 171.757C578.761 168.225 577.134 163.419 577.134 157.04H571.134C571.134 164.461 573.047 170.755 577.15 175.623L581.738 171.757ZM577.134 157.04V155.24H571.134V157.04H577.134ZM577.134 155.24C577.134 148.859 578.762 144.094 581.724 140.63L577.164 136.73C573.046 141.546 571.134 147.821 571.134 155.24H577.134ZM581.708 140.649C584.623 137.297 588.819 135.47 594.744 135.47V129.47C587.468 129.47 581.465 131.783 577.18 136.711L581.708 140.649ZM594.744 135.47C600.67 135.47 604.824 137.297 607.674 140.63L612.234 136.73C608.004 131.783 602.018 129.47 594.744 129.47V135.47ZM607.69 140.649C610.703 144.113 612.354 148.871 612.354 155.24H618.354C618.354 147.809 616.405 141.527 612.218 136.711L607.69 140.649ZM607.284 153.44C607.284 146.934 606.493 141.661 604.426 138.217L599.281 141.303C600.455 143.259 601.284 147.106 601.284 153.44H607.284ZM604.441 138.241C602.3 134.593 598.961 132.62 594.744 132.62V138.62C596.766 138.62 598.168 139.407 599.267 141.279L604.441 138.241ZM594.744 132.62C590.568 132.62 587.259 134.607 585.071 138.2L590.197 141.32C591.369 139.393 592.8 138.62 594.744 138.62V132.62ZM585.061 138.217C582.995 141.661 582.204 146.934 582.204 153.44H588.204C588.204 147.106 589.033 143.259 590.206 141.303L585.061 138.217ZM582.204 153.44V158.84H588.204V153.44H582.204ZM582.204 158.84C582.204 165.311 583.003 170.571 585.033 174.104L590.235 171.116C589.025 169.009 588.204 165.089 588.204 158.84H582.204ZM585.071 174.17C587.259 177.763 590.568 179.75 594.744 179.75V173.75C592.8 173.75 591.369 172.977 590.197 171.05L585.071 174.17ZM594.744 179.75C598.961 179.75 602.3 177.777 604.441 174.129L599.267 171.091C598.168 172.963 596.766 173.75 594.744 173.75V179.75ZM604.455 174.104C606.485 170.571 607.284 165.311 607.284 158.84H601.284C601.284 165.089 600.463 169.009 599.253 171.116L604.455 174.104ZM607.284 158.84V153.44H601.284V158.84H607.284ZM618.911 114.92H615.911V117.562L618.532 117.896L618.911 114.92ZM618.911 112.4V109.4H615.911V112.4H618.911ZM636.191 112.4H639.191V109.4H636.191V112.4ZM636.191 140.03H633.191V150.244L638.715 141.652L636.191 140.03ZM641.591 134.36L640.015 131.808L639.997 131.818L639.98 131.829L641.591 134.36ZM660.581 138.5L658.16 140.271L658.174 140.291L658.19 140.312L660.581 138.5ZM659.951 173.69L657.638 171.779L657.638 171.779L659.951 173.69ZM634.391 175.76L636.444 173.573L635.066 172.279L633.304 172.964L634.391 175.76ZM631.241 177.38L632.831 179.924L632.851 179.912L632.871 179.899L631.241 177.38ZM628.271 179.45V182.45H629.287L630.093 181.833L628.271 179.45ZM625.841 179.45H622.841V182.45H625.841V179.45ZM625.571 116.36L622.814 117.542L622.848 117.623L622.888 117.702L625.571 116.36ZM623.861 115.55L623.482 118.526L623.489 118.527L623.861 115.55ZM641.501 138.32L643.287 140.731L643.294 140.725L643.301 140.72L641.501 138.32ZM636.191 145.79L633.516 144.431L633.191 145.072V145.79H636.191ZM636.191 172.97H633.191V174.213L634.07 175.091L636.191 172.97ZM651.761 171.98L649.078 170.638L649.072 170.649L649.067 170.66L651.761 171.98ZM651.941 140.3L649.296 141.715L649.296 141.715L651.941 140.3ZM621.911 114.92V112.4H615.911V114.92H621.911ZM618.911 115.4H636.191V109.4H618.911V115.4ZM633.191 112.4V140.03H639.191V112.4H633.191ZM638.715 141.652C640.162 139.4 641.675 137.863 643.202 136.891L639.98 131.829C637.547 133.377 635.46 135.62 633.667 138.408L638.715 141.652ZM643.167 136.912C644.687 135.974 646.47 135.47 648.611 135.47V129.47C645.472 129.47 642.575 130.226 640.015 131.808L643.167 136.912ZM648.611 135.47C652.708 135.47 655.792 137.034 658.16 140.271L663.003 136.729C659.49 131.926 654.594 129.47 648.611 129.47V135.47ZM658.19 140.312C660.652 143.562 662.081 148.411 662.081 155.24H668.081C668.081 147.669 666.51 141.358 662.972 136.688L658.19 140.312ZM662.081 155.24V157.04H668.081V155.24H662.081ZM662.081 157.04C662.081 163.512 660.497 168.319 657.638 171.779L662.264 175.601C666.245 170.781 668.081 164.488 668.081 157.04H662.081ZM657.638 171.779C654.866 175.135 651.026 176.9 645.731 176.9V182.9C652.556 182.9 658.196 180.525 662.264 175.601L657.638 171.779ZM645.731 176.9C641.754 176.9 638.747 175.734 636.444 173.573L632.338 177.947C635.915 181.306 640.468 182.9 645.731 182.9V176.9ZM633.304 172.964C632.025 173.461 630.794 174.096 629.611 174.861L632.871 179.899C633.728 179.344 634.597 178.899 635.478 178.556L633.304 172.964ZM629.651 174.836C628.601 175.492 627.534 176.237 626.449 177.067L630.093 181.833C631.048 181.103 631.961 180.468 632.831 179.924L629.651 174.836ZM628.271 176.45H625.841V182.45H628.271V176.45ZM628.841 179.45V119.96H622.841V179.45H628.841ZM628.841 119.96C628.841 118.909 628.818 118.014 628.765 117.306C628.739 116.953 628.702 116.601 628.645 116.276C628.6 116.014 628.503 115.515 628.254 115.018L622.888 117.702C622.793 117.513 622.753 117.371 622.743 117.333C622.729 117.284 622.728 117.268 622.733 117.299C622.744 117.364 622.763 117.507 622.782 117.754C622.819 118.246 622.841 118.971 622.841 119.96H628.841ZM628.328 115.178C627.857 114.078 626.987 113.46 626.293 113.131C625.609 112.807 624.879 112.654 624.233 112.573L623.489 118.527C623.803 118.566 623.838 118.608 623.724 118.554C623.6 118.495 623.105 118.222 622.814 117.542L628.328 115.178ZM624.24 112.574L619.29 111.944L618.532 117.896L623.482 118.526L624.24 112.574ZM646.271 133.43C643.907 133.43 641.698 134.423 639.701 135.92L643.301 140.72C644.664 139.697 645.635 139.43 646.271 139.43V133.43ZM639.715 135.909C637.494 137.554 635.464 140.597 633.516 144.431L638.866 147.149C640.758 143.423 642.268 141.486 643.287 140.731L639.715 135.909ZM633.191 145.79V172.97H639.191V145.79H633.191ZM634.07 175.091C636.927 177.949 640.486 179.39 644.561 179.39V173.39C642.036 173.39 640.015 172.551 638.312 170.849L634.07 175.091ZM644.561 179.39C646.686 179.39 648.692 178.921 650.448 177.846C652.209 176.767 653.526 175.196 654.455 173.3L649.067 170.66C648.556 171.704 647.953 172.338 647.314 172.729C646.67 173.124 645.796 173.39 644.561 173.39V179.39ZM654.444 173.322C656.235 169.741 657.011 165.138 657.011 159.74H651.011C651.011 164.662 650.287 168.219 649.078 170.638L654.444 173.322ZM657.011 159.74V152.54H651.011V159.74H657.011ZM657.011 152.54C657.011 146.838 656.327 142.14 654.586 138.885L649.296 141.715C650.315 143.62 651.011 147.082 651.011 152.54H657.011ZM654.586 138.885C652.821 135.584 650.039 133.43 646.271 133.43V139.43C647.303 139.43 648.301 139.856 649.296 141.715L654.586 138.885ZM708.834 173.69L706.557 171.738L706.554 171.74L708.834 173.69ZM678.324 173.69L676.03 175.623L676.045 175.641L676.061 175.659L678.324 173.69ZM678.324 138.68L676.061 136.711L676.052 136.721L676.044 136.73L678.324 138.68ZM708.834 138.68L706.554 140.63L706.562 140.639L706.571 140.649L708.834 138.68ZM700.734 139.76L698.147 141.279L698.154 141.291L698.162 141.303L700.734 139.76ZM686.514 139.76L683.952 138.2L683.947 138.208L683.942 138.217L686.514 139.76ZM686.514 172.61L683.913 174.104L683.932 174.137L683.952 174.17L686.514 172.61ZM700.734 172.61L703.322 174.129L703.329 174.117L703.336 174.104L700.734 172.61ZM711.234 155.24V157.04H717.234V155.24H711.234ZM711.234 157.04C711.234 163.407 709.584 168.206 706.557 171.738L711.112 175.642C715.285 170.774 717.234 164.473 717.234 157.04H711.234ZM706.554 171.74C703.704 175.073 699.551 176.9 693.624 176.9V182.9C700.898 182.9 706.884 180.587 711.114 175.64L706.554 171.74ZM693.624 176.9C687.7 176.9 683.503 175.073 680.588 171.721L676.061 175.659C680.346 180.587 686.349 182.9 693.624 182.9V176.9ZM680.618 171.757C677.642 168.225 676.014 163.419 676.014 157.04H670.014C670.014 164.461 671.927 170.755 676.03 175.623L680.618 171.757ZM676.014 157.04V155.24H670.014V157.04H676.014ZM676.014 155.24C676.014 148.859 677.642 144.094 680.604 140.63L676.044 136.73C671.926 141.546 670.014 147.821 670.014 155.24H676.014ZM680.588 140.649C683.503 137.297 687.7 135.47 693.624 135.47V129.47C686.349 129.47 680.346 131.783 676.061 136.711L680.588 140.649ZM693.624 135.47C699.551 135.47 703.704 137.297 706.554 140.63L711.114 136.73C706.884 131.783 700.898 129.47 693.624 129.47V135.47ZM706.571 140.649C709.583 144.113 711.234 148.871 711.234 155.24H717.234C717.234 147.809 715.286 141.527 711.098 136.711L706.571 140.649ZM706.164 153.44C706.164 146.934 705.374 141.661 703.307 138.217L698.162 141.303C699.335 143.259 700.164 147.106 700.164 153.44H706.164ZM703.322 138.241C701.18 134.593 697.842 132.62 693.624 132.62V138.62C695.647 138.62 697.049 139.407 698.147 141.279L703.322 138.241ZM693.624 132.62C689.448 132.62 686.139 134.607 683.952 138.2L689.077 141.32C690.25 139.393 691.681 138.62 693.624 138.62V132.62ZM683.942 138.217C681.875 141.661 681.084 146.934 681.084 153.44H687.084C687.084 147.106 687.914 143.259 689.087 141.303L683.942 138.217ZM681.084 153.44V158.84H687.084V153.44H681.084ZM681.084 158.84C681.084 165.311 681.883 170.571 683.913 174.104L689.116 171.116C687.906 169.009 687.084 165.089 687.084 158.84H681.084ZM683.952 174.17C686.139 177.763 689.448 179.75 693.624 179.75V173.75C691.681 173.75 690.25 172.977 689.077 171.05L683.952 174.17ZM693.624 179.75C697.842 179.75 701.18 177.777 703.322 174.129L698.147 171.091C697.049 172.963 695.647 173.75 693.624 173.75V179.75ZM703.336 174.104C705.366 170.571 706.164 165.311 706.164 158.84H700.164C700.164 165.089 699.343 169.009 698.133 171.116L703.336 174.104ZM706.164 158.84V153.44H700.164V158.84H706.164ZM751.181 169.64L754.116 170.265L754.719 167.432L751.909 166.73L751.181 169.64ZM746.681 177.56L748.438 179.992L748.444 179.988L748.45 179.983L746.681 177.56ZM730.931 177.83L729.201 180.281L729.226 180.298L729.251 180.315L730.931 177.83ZM726.431 172.16L723.656 173.299L723.656 173.299L726.431 172.16ZM724.721 137.33L721.964 138.512L721.999 138.593L722.038 138.672L724.721 137.33ZM723.011 136.52L722.633 139.496L722.639 139.497L723.011 136.52ZM718.061 135.89H715.061V138.532L717.683 138.866L718.061 135.89ZM718.061 133.37V130.37H715.061V133.37H718.061ZM724.991 133.37V136.37H727.991V133.37H724.991ZM724.991 122.93L724.403 119.988L721.991 120.471V122.93H724.991ZM735.341 120.86H738.341V117.201L734.753 117.918L735.341 120.86ZM735.341 133.37H732.341V136.37H735.341V133.37ZM749.741 133.37H752.741V130.37H749.741V133.37ZM749.741 136.52V139.52H752.741V136.52H749.741ZM735.341 136.52V133.52H732.341V136.52H735.341ZM736.781 174.5L734.255 176.117L734.27 176.141L734.285 176.164L736.781 174.5ZM744.071 174.86L741.671 173.06L741.642 173.099L741.614 173.14L744.071 174.86ZM745.781 168.29L746.509 165.38L743.058 164.517L742.79 168.064L745.781 168.29ZM748.247 169.015C747.565 172.216 746.35 174.088 744.913 175.137L748.45 179.983C751.453 177.792 753.238 174.384 754.116 170.265L748.247 169.015ZM744.925 175.128C743.36 176.259 741.362 176.9 738.761 176.9V182.9C742.401 182.9 745.683 181.981 748.438 179.992L744.925 175.128ZM738.761 176.9C736.008 176.9 734.03 176.304 732.612 175.345L729.251 180.315C731.913 182.116 735.155 182.9 738.761 182.9V176.9ZM732.662 175.379C731.094 174.273 729.953 172.841 729.207 171.021L723.656 173.299C724.83 176.159 726.689 178.507 729.201 180.281L732.662 175.379ZM729.207 171.021C728.402 169.058 727.991 166.957 727.991 164.69H721.991C721.991 167.703 722.541 170.582 723.656 173.299L729.207 171.021ZM727.991 164.69V140.93H721.991V164.69H727.991ZM727.991 140.93C727.991 139.879 727.969 138.984 727.916 138.276C727.889 137.923 727.852 137.571 727.796 137.246C727.75 136.984 727.653 136.485 727.405 135.988L722.038 138.672C721.944 138.483 721.903 138.341 721.893 138.303C721.88 138.254 721.878 138.238 721.884 138.269C721.895 138.334 721.914 138.477 721.932 138.724C721.969 139.216 721.991 139.941 721.991 140.93H727.991ZM727.479 136.148C727.007 135.048 726.137 134.43 725.443 134.101C724.76 133.777 724.03 133.624 723.384 133.543L722.639 139.497C722.953 139.536 722.988 139.578 722.875 139.524C722.75 139.465 722.256 139.192 721.964 138.512L727.479 136.148ZM723.39 133.544L718.44 132.914L717.683 138.866L722.633 139.496L723.39 133.544ZM721.061 135.89V133.37H715.061V135.89H721.061ZM718.061 136.37H724.991V130.37H718.061V136.37ZM727.991 133.37V122.93H721.991V133.37H727.991ZM725.58 125.872L735.93 123.802L734.753 117.918L724.403 119.988L725.58 125.872ZM732.341 120.86V133.37H738.341V120.86H732.341ZM735.341 136.37H749.741V130.37H735.341V136.37ZM746.741 133.37V136.52H752.741V133.37H746.741ZM749.741 133.52H735.341V139.52H749.741V133.52ZM732.341 136.52V166.49H738.341V136.52H732.341ZM732.341 166.49C732.341 170.378 732.79 173.829 734.255 176.117L739.308 172.883C738.853 172.171 738.341 170.282 738.341 166.49H732.341ZM734.285 176.164C735.702 178.289 737.801 179.66 740.471 179.66V173.66C740.142 173.66 739.781 173.591 739.278 172.836L734.285 176.164ZM740.471 179.66C742.935 179.66 745.086 178.642 746.529 176.58L741.614 173.14C741.377 173.478 741.128 173.66 740.471 173.66V179.66ZM746.471 176.66C747.929 174.716 748.529 171.753 748.773 168.516L742.79 168.064C742.554 171.187 742.014 172.604 741.671 173.06L746.471 176.66ZM745.054 171.2L750.454 172.55L751.909 166.73L746.509 165.38L745.054 171.2Z" fill="black" mask="url(#path-6-outside-1_362_165)"/>
</g>
<g filter="url(#filter1_di_362_165)">
<mask id="path-8-outside-2_362_165" maskUnits="userSpaceOnUse" x="533" y="209" width="128" height="70" fill="black">
<rect fill="white" x="533" y="209" width="128" height="70"/>
<path d="M562.68 275.9C557.16 275.9 552.48 274.73 548.64 272.39C544.8 269.99 541.89 266.63 539.91 262.31C537.93 257.99 536.94 252.95 536.94 247.19V241.52C536.94 235.76 537.81 230.75 539.55 226.49C541.35 222.17 544.02 218.84 547.56 216.5C551.1 214.1 555.54 212.9 560.88 212.9C565.44 212.9 569.25 213.8 572.31 215.6C575.37 217.34 577.62 219.68 579.06 222.62C580.56 225.5 581.19 228.65 580.95 232.07L570.42 234.68C571.02 228.68 570.39 224.09 568.53 220.91C566.73 217.67 564.03 216.05 560.43 216.05C556.59 216.05 553.62 217.67 551.52 220.91C549.48 224.15 548.46 229.52 548.46 237.02V251.69C548.46 259.13 549.63 264.5 551.97 267.8C554.31 271.1 557.88 272.75 562.68 272.75C564.66 272.75 566.49 272.39 568.17 271.67C569.91 270.95 571.35 269.72 572.49 267.98C573.69 266.18 574.44 263.66 574.74 260.42L581.22 262.13C580.38 265.49 579.03 268.19 577.17 270.23C575.31 272.27 573.12 273.74 570.6 274.64C568.14 275.48 565.5 275.9 562.68 275.9ZM627.001 259.52H629.521V275H586.771V272.48L591.721 271.85C592.681 271.73 593.251 271.49 593.431 271.13C593.611 270.71 593.701 269.48 593.701 267.44V221.36C593.701 219.32 593.611 218.12 593.431 217.76C593.251 217.34 592.681 217.07 591.721 216.95L586.771 216.32V213.8H611.431V216.32L606.481 216.95C605.521 217.07 604.951 217.34 604.771 217.76C604.591 218.12 604.501 219.32 604.501 221.36V271.85H619.261C620.701 271.85 621.721 271.82 622.321 271.76C622.921 271.64 623.311 271.43 623.491 271.13C623.731 270.77 623.941 270.23 624.121 269.51L627.001 259.52ZM632.872 216.32V213.8H657.532V216.32L652.582 216.95C651.622 217.07 651.052 217.34 650.872 217.76C650.692 218.12 650.602 219.32 650.602 221.36V267.44C650.602 269.48 650.692 270.71 650.872 271.13C651.052 271.49 651.622 271.73 652.582 271.85L657.532 272.48V275H632.872V272.48L637.822 271.85C638.782 271.73 639.352 271.49 639.532 271.13C639.712 270.71 639.802 269.48 639.802 267.44V221.36C639.802 219.32 639.712 218.12 639.532 217.76C639.352 217.34 638.782 217.07 637.822 216.95L632.872 216.32Z"/>
</mask>
<path d="M562.68 275.9C557.16 275.9 552.48 274.73 548.64 272.39C544.8 269.99 541.89 266.63 539.91 262.31C537.93 257.99 536.94 252.95 536.94 247.19V241.52C536.94 235.76 537.81 230.75 539.55 226.49C541.35 222.17 544.02 218.84 547.56 216.5C551.1 214.1 555.54 212.9 560.88 212.9C565.44 212.9 569.25 213.8 572.31 215.6C575.37 217.34 577.62 219.68 579.06 222.62C580.56 225.5 581.19 228.65 580.95 232.07L570.42 234.68C571.02 228.68 570.39 224.09 568.53 220.91C566.73 217.67 564.03 216.05 560.43 216.05C556.59 216.05 553.62 217.67 551.52 220.91C549.48 224.15 548.46 229.52 548.46 237.02V251.69C548.46 259.13 549.63 264.5 551.97 267.8C554.31 271.1 557.88 272.75 562.68 272.75C564.66 272.75 566.49 272.39 568.17 271.67C569.91 270.95 571.35 269.72 572.49 267.98C573.69 266.18 574.44 263.66 574.74 260.42L581.22 262.13C580.38 265.49 579.03 268.19 577.17 270.23C575.31 272.27 573.12 273.74 570.6 274.64C568.14 275.48 565.5 275.9 562.68 275.9ZM627.001 259.52H629.521V275H586.771V272.48L591.721 271.85C592.681 271.73 593.251 271.49 593.431 271.13C593.611 270.71 593.701 269.48 593.701 267.44V221.36C593.701 219.32 593.611 218.12 593.431 217.76C593.251 217.34 592.681 217.07 591.721 216.95L586.771 216.32V213.8H611.431V216.32L606.481 216.95C605.521 217.07 604.951 217.34 604.771 217.76C604.591 218.12 604.501 219.32 604.501 221.36V271.85H619.261C620.701 271.85 621.721 271.82 622.321 271.76C622.921 271.64 623.311 271.43 623.491 271.13C623.731 270.77 623.941 270.23 624.121 269.51L627.001 259.52ZM632.872 216.32V213.8H657.532V216.32L652.582 216.95C651.622 217.07 651.052 217.34 650.872 217.76C650.692 218.12 650.602 219.32 650.602 221.36V267.44C650.602 269.48 650.692 270.71 650.872 271.13C651.052 271.49 651.622 271.73 652.582 271.85L657.532 272.48V275H632.872V272.48L637.822 271.85C638.782 271.73 639.352 271.49 639.532 271.13C639.712 270.71 639.802 269.48 639.802 267.44V221.36C639.802 219.32 639.712 218.12 639.532 217.76C639.352 217.34 638.782 217.07 637.822 216.95L632.872 216.32Z" fill="#FFDD09"/>
<path d="M548.64 272.39L547.05 274.934L547.064 274.943L547.079 274.952L548.64 272.39ZM539.91 262.31L542.637 261.06L542.637 261.06L539.91 262.31ZM539.55 226.49L536.781 225.336L536.777 225.346L536.773 225.356L539.55 226.49ZM547.56 216.5L549.214 219.003L549.229 218.993L549.243 218.983L547.56 216.5ZM572.31 215.6L570.789 218.186L570.808 218.197L570.827 218.208L572.31 215.6ZM579.06 222.62L576.366 223.94L576.382 223.973L576.399 224.006L579.06 222.62ZM580.95 232.07L581.672 234.982L583.79 234.457L583.943 232.28L580.95 232.07ZM570.42 234.68L567.435 234.381L567.011 238.616L571.142 237.592L570.42 234.68ZM568.53 220.91L565.908 222.367L565.924 222.396L565.94 222.425L568.53 220.91ZM551.52 220.91L549.003 219.278L548.992 219.295L548.981 219.312L551.52 220.91ZM551.97 267.8L554.417 266.065L554.417 266.065L551.97 267.8ZM568.17 271.67L567.023 268.898L567.006 268.905L566.988 268.913L568.17 271.67ZM572.49 267.98L569.994 266.316L569.987 266.326L569.981 266.336L572.49 267.98ZM574.74 260.42L575.505 257.519L572.079 256.615L571.753 260.143L574.74 260.42ZM581.22 262.13L584.13 262.858L584.849 259.985L581.985 259.229L581.22 262.13ZM577.17 270.23L574.953 268.209L574.953 268.209L577.17 270.23ZM570.6 274.64L571.569 277.479L571.589 277.472L571.609 277.465L570.6 274.64ZM562.68 272.9C557.586 272.9 553.474 271.823 550.201 269.828L547.079 274.952C551.486 277.637 556.734 278.9 562.68 278.9V272.9ZM550.23 269.846C546.913 267.773 544.386 264.875 542.637 261.06L537.183 263.56C539.394 268.385 542.687 272.207 547.05 274.934L550.23 269.846ZM542.637 261.06C540.871 257.206 539.94 252.608 539.94 247.19H533.94C533.94 253.292 534.989 258.774 537.183 263.56L542.637 261.06ZM539.94 247.19V241.52H533.94V247.19H539.94ZM539.94 241.52C539.94 236.055 540.766 231.446 542.327 227.624L536.773 225.356C534.854 230.054 533.94 235.465 533.94 241.52H539.94ZM542.319 227.644C543.914 223.815 546.222 220.98 549.214 219.003L545.906 213.997C541.818 216.7 538.786 220.525 536.781 225.336L542.319 227.644ZM549.243 218.983C552.176 216.995 555.99 215.9 560.88 215.9V209.9C555.09 209.9 550.024 211.205 545.877 214.017L549.243 218.983ZM560.88 215.9C565.054 215.9 568.304 216.724 570.789 218.186L573.831 213.014C570.196 210.876 565.826 209.9 560.88 209.9V215.9ZM570.827 218.208C573.405 219.673 575.211 221.582 576.366 223.94L581.754 221.3C580.029 217.778 577.335 215.007 573.793 212.992L570.827 218.208ZM576.399 224.006C577.629 226.367 578.161 228.96 577.957 231.86L583.943 232.28C584.219 228.34 583.491 224.633 581.721 221.234L576.399 224.006ZM580.228 229.158L569.698 231.768L571.142 237.592L581.672 234.982L580.228 229.158ZM573.405 234.979C574.031 228.715 573.446 223.373 571.12 219.395L565.94 222.425C567.334 224.807 568.009 228.645 567.435 234.381L573.405 234.979ZM571.152 219.453C570.042 217.455 568.574 215.818 566.698 214.693C564.819 213.565 562.694 213.05 560.43 213.05V219.05C561.766 219.05 562.791 219.345 563.612 219.837C564.436 220.332 565.218 221.125 565.908 222.367L571.152 219.453ZM560.43 213.05C555.566 213.05 551.652 215.191 549.003 219.278L554.037 222.542C555.588 220.149 557.614 219.05 560.43 219.05V213.05ZM548.981 219.312C546.467 223.305 545.46 229.405 545.46 237.02H551.46C551.46 229.635 552.493 224.995 554.059 222.508L548.981 219.312ZM545.46 237.02V251.69H551.46V237.02H545.46ZM545.46 251.69C545.46 259.3 546.629 265.454 549.523 269.535L554.417 266.065C552.631 263.546 551.46 258.96 551.46 251.69H545.46ZM549.523 269.535C552.535 273.783 557.114 275.75 562.68 275.75V269.75C558.646 269.75 556.085 268.417 554.417 266.065L549.523 269.535ZM562.68 275.75C565.032 275.75 567.268 275.32 569.352 274.427L566.988 268.913C565.712 269.46 564.288 269.75 562.68 269.75V275.75ZM569.317 274.442C571.672 273.468 573.565 271.813 574.999 269.624L569.981 266.336C569.135 267.627 568.148 268.432 567.023 268.898L569.317 274.442ZM574.986 269.644C576.567 267.272 577.403 264.203 577.727 260.697L571.753 260.143C571.477 263.117 570.813 265.088 569.994 266.316L574.986 269.644ZM573.975 263.321L580.455 265.031L581.985 259.229L575.505 257.519L573.975 263.321ZM578.31 261.402C577.56 264.401 576.404 266.618 574.953 268.209L579.387 272.251C581.656 269.762 583.2 266.579 584.13 262.858L578.31 261.402ZM574.953 268.209C573.413 269.898 571.634 271.085 569.591 271.815L571.609 277.465C574.606 276.395 577.207 274.642 579.387 272.251L574.953 268.209ZM569.631 271.801C567.508 272.526 565.198 272.9 562.68 272.9V278.9C565.802 278.9 568.772 278.434 571.569 277.479L569.631 271.801ZM627.001 259.52V256.52H624.744L624.119 258.689L627.001 259.52ZM629.521 259.52H632.521V256.52H629.521V259.52ZM629.521 275V278H632.521V275H629.521ZM586.771 275H583.771V278H586.771V275ZM586.771 272.48L586.392 269.504L583.771 269.838V272.48H586.771ZM591.721 271.85L591.349 268.873L591.342 268.874L591.721 271.85ZM593.431 271.13L596.114 272.472L596.154 272.393L596.189 272.312L593.431 271.13ZM593.431 217.76L590.674 218.942L590.708 219.023L590.748 219.102L593.431 217.76ZM591.721 216.95L591.342 219.926L591.349 219.927L591.721 216.95ZM586.771 216.32H583.771V218.962L586.392 219.296L586.771 216.32ZM586.771 213.8V210.8H583.771V213.8H586.771ZM611.431 213.8H614.431V210.8H611.431V213.8ZM611.431 216.32L611.81 219.296L614.431 218.962V216.32H611.431ZM606.481 216.95L606.853 219.927L606.86 219.926L606.481 216.95ZM604.771 217.76L607.454 219.102L607.494 219.023L607.529 218.942L604.771 217.76ZM604.501 271.85H601.501V274.85H604.501V271.85ZM622.321 271.76L622.62 274.745L622.766 274.731L622.91 274.702L622.321 271.76ZM623.491 271.13L620.995 269.466L620.955 269.525L620.919 269.587L623.491 271.13ZM624.121 269.51L621.239 268.679L621.224 268.73L621.211 268.782L624.121 269.51ZM627.001 262.52H629.521V256.52H627.001V262.52ZM626.521 259.52V275H632.521V259.52H626.521ZM629.521 272H586.771V278H629.521V272ZM589.771 275V272.48H583.771V275H589.771ZM587.15 275.456L592.1 274.826L591.342 268.874L586.392 269.504L587.15 275.456ZM592.093 274.827C592.711 274.75 593.394 274.614 594.033 274.345C594.639 274.09 595.571 273.558 596.114 272.472L590.748 269.788C590.931 269.422 591.168 269.179 591.349 269.035C591.523 268.896 591.661 268.833 591.705 268.815C591.773 268.786 591.692 268.83 591.349 268.873L592.093 274.827ZM596.189 272.312C596.504 271.576 596.584 270.677 596.626 270.111C596.678 269.392 596.701 268.493 596.701 267.44H590.701C590.701 268.427 590.679 269.163 590.642 269.674C590.623 269.93 590.603 270.091 590.589 270.179C590.568 270.308 590.575 270.18 590.674 269.948L596.189 272.312ZM596.701 267.44V221.36H590.701V267.44H596.701ZM596.701 221.36C596.701 220.309 596.678 219.414 596.625 218.706C596.599 218.353 596.562 218.001 596.505 217.676C596.46 217.414 596.363 216.915 596.114 216.418L590.748 219.102C590.653 218.913 590.613 218.771 590.603 218.733C590.589 218.684 590.588 218.668 590.593 218.699C590.604 218.764 590.624 218.907 590.642 219.154C590.679 219.646 590.701 220.371 590.701 221.36H596.701ZM596.189 216.578C595.717 215.478 594.847 214.86 594.153 214.531C593.469 214.207 592.739 214.054 592.093 213.973L591.349 219.927C591.663 219.966 591.698 220.008 591.584 219.954C591.46 219.895 590.965 219.622 590.674 218.942L596.189 216.578ZM592.1 213.974L587.15 213.344L586.392 219.296L591.342 219.926L592.1 213.974ZM589.771 216.32V213.8H583.771V216.32H589.771ZM586.771 216.8H611.431V210.8H586.771V216.8ZM608.431 213.8V216.32H614.431V213.8H608.431ZM611.052 213.344L606.102 213.974L606.86 219.926L611.81 219.296L611.052 213.344ZM606.109 213.973C605.463 214.054 604.733 214.207 604.049 214.531C603.355 214.86 602.485 215.478 602.014 216.578L607.529 218.942C607.237 219.622 606.742 219.895 606.618 219.954C606.504 220.008 606.539 219.966 606.853 219.927L606.109 213.973ZM602.088 216.418C601.839 216.915 601.742 217.414 601.697 217.676C601.641 218.001 601.604 218.353 601.577 218.706C601.524 219.414 601.501 220.309 601.501 221.36H607.501C607.501 220.371 607.523 219.646 607.56 219.154C607.579 218.907 607.598 218.764 607.609 218.699C607.614 218.668 607.613 218.684 607.6 218.733C607.589 218.771 607.549 218.913 607.454 219.102L602.088 216.418ZM601.501 221.36V271.85H607.501V221.36H601.501ZM604.501 274.85H619.261V268.85H604.501V274.85ZM619.261 274.85C620.702 274.85 621.856 274.822 622.62 274.745L622.023 268.775C621.587 268.818 620.7 268.85 619.261 268.85V274.85ZM622.91 274.702C623.755 274.533 625.216 274.086 626.064 272.673L620.919 269.587C621.171 269.166 621.486 268.955 621.641 268.871C621.786 268.793 621.844 268.796 621.733 268.818L622.91 274.702ZM625.987 272.794C626.507 272.014 626.819 271.088 627.032 270.238L621.211 268.782C621.143 269.052 621.081 269.242 621.033 269.368C620.982 269.499 620.962 269.516 620.995 269.466L625.987 272.794ZM627.004 270.341L629.884 260.351L624.119 258.689L621.239 268.679L627.004 270.341ZM632.872 216.32H629.872V218.962L632.493 219.296L632.872 216.32ZM632.872 213.8V210.8H629.872V213.8H632.872ZM657.532 213.8H660.532V210.8H657.532V213.8ZM657.532 216.32L657.91 219.296L660.532 218.962V216.32H657.532ZM652.582 216.95L652.954 219.927L652.96 219.926L652.582 216.95ZM650.872 217.76L653.555 219.102L653.594 219.023L653.629 218.942L650.872 217.76ZM650.872 271.13L648.114 272.312L648.149 272.393L648.188 272.472L650.872 271.13ZM652.582 271.85L652.96 268.874L652.954 268.873L652.582 271.85ZM657.532 272.48H660.532V269.838L657.91 269.504L657.532 272.48ZM657.532 275V278H660.532V275H657.532ZM632.872 275H629.872V278H632.872V275ZM632.872 272.48L632.493 269.504L629.872 269.838V272.48H632.872ZM637.822 271.85L637.449 268.873L637.443 268.874L637.822 271.85ZM639.532 271.13L642.215 272.472L642.254 272.393L642.289 272.312L639.532 271.13ZM639.532 217.76L636.774 218.942L636.809 219.023L636.848 219.102L639.532 217.76ZM637.822 216.95L637.443 219.926L637.449 219.927L637.822 216.95ZM635.872 216.32V213.8H629.872V216.32H635.872ZM632.872 216.8H657.532V210.8H632.872V216.8ZM654.532 213.8V216.32H660.532V213.8H654.532ZM657.153 213.344L652.203 213.974L652.96 219.926L657.91 219.296L657.153 213.344ZM652.209 213.973C651.563 214.054 650.833 214.207 650.15 214.531C649.456 214.86 648.586 215.478 648.114 216.578L653.629 218.942C653.337 219.622 652.843 219.895 652.718 219.954C652.605 220.008 652.64 219.966 652.954 219.927L652.209 213.973ZM648.188 216.418C647.94 216.915 647.843 217.414 647.797 217.676C647.741 218.001 647.704 218.353 647.677 218.706C647.624 219.414 647.602 220.309 647.602 221.36H653.602C653.602 220.371 653.624 219.646 653.661 219.154C653.679 218.907 653.698 218.764 653.709 218.699C653.715 218.668 653.713 218.684 653.7 218.733C653.69 218.771 653.649 218.913 653.555 219.102L648.188 216.418ZM647.602 221.36V267.44H653.602V221.36H647.602ZM647.602 267.44C647.602 268.493 647.624 269.392 647.677 270.111C647.718 270.677 647.799 271.576 648.114 272.312L653.629 269.948C653.728 270.18 653.735 270.308 653.714 270.179C653.7 270.091 653.68 269.93 653.661 269.674C653.624 269.163 653.602 268.427 653.602 267.44H647.602ZM648.188 272.472C648.732 273.558 649.664 274.09 650.27 274.345C650.908 274.614 651.592 274.75 652.209 274.827L652.954 268.873C652.611 268.83 652.53 268.786 652.598 268.815C652.642 268.833 652.78 268.896 652.954 269.035C653.134 269.179 653.372 269.422 653.555 269.788L648.188 272.472ZM652.203 274.826L657.153 275.456L657.91 269.504L652.96 268.874L652.203 274.826ZM654.532 272.48V275H660.532V272.48H654.532ZM657.532 272H632.872V278H657.532V272ZM635.872 275V272.48H629.872V275H635.872ZM633.25 275.456L638.2 274.826L637.443 268.874L632.493 269.504L633.25 275.456ZM638.194 274.827C638.811 274.75 639.495 274.614 640.133 274.345C640.739 274.09 641.671 273.558 642.215 272.472L636.848 269.788C637.031 269.422 637.269 269.179 637.449 269.035C637.623 268.896 637.762 268.833 637.805 268.815C637.873 268.786 637.792 268.83 637.449 268.873L638.194 274.827ZM642.289 272.312C642.604 271.576 642.685 270.677 642.726 270.111C642.779 269.392 642.802 268.493 642.802 267.44H636.802C636.802 268.427 636.779 269.163 636.742 269.674C636.723 269.93 636.703 270.091 636.689 270.179C636.668 270.308 636.675 270.18 636.774 269.948L642.289 272.312ZM642.802 267.44V221.36H636.802V267.44H642.802ZM642.802 221.36C642.802 220.309 642.779 219.414 642.726 218.706C642.699 218.353 642.662 218.001 642.606 217.676C642.56 217.414 642.463 216.915 642.215 216.418L636.848 219.102C636.754 218.913 636.714 218.771 636.703 218.733C636.69 218.684 636.688 218.668 636.694 218.699C636.705 218.764 636.724 218.907 636.742 219.154C636.779 219.646 636.802 220.371 636.802 221.36H642.802ZM642.289 216.578C641.817 215.478 640.948 214.86 640.253 214.531C639.57 214.207 638.84 214.054 638.194 213.973L637.449 219.927C637.763 219.966 637.798 220.008 637.685 219.954C637.561 219.895 637.066 219.622 636.774 218.942L642.289 216.578ZM638.2 213.974L633.25 213.344L632.493 219.296L637.443 219.926L638.2 213.974Z" fill="black" mask="url(#path-8-outside-2_362_165)"/>
</g>
<defs>
<filter id="filter0_di_362_165" x="529.07" y="112.4" width="226.111" height="75.5" filterUnits="userSpaceOnUse" color-interpolation-filters="sRGB">
<feFlood flood-opacity="0" result="BackgroundImageFix"/>
<feColorMatrix in="SourceAlpha" type="matrix" values="0 0 0 0 0 0 0 0 0 0 0 0 0 0 0 0 0 0 127 0" result="hardAlpha"/>
<feOffset dy="4"/>
<feGaussianBlur stdDeviation="2"/>
<feComposite in2="hardAlpha" operator="out"/>
<feColorMatrix type="matrix" values="0 0 0 0 0 0 0 0 0 0 0 0 0 0 0 0 0 0 0.25 0"/>
<feBlend mode="normal" in2="BackgroundImageFix" result="effect1_dropShadow_362_165"/>
<feBlend mode="normal" in="SourceGraphic" in2="effect1_dropShadow_362_165" result="shape"/>
<feColorMatrix in="SourceAlpha" type="matrix" values="0 0 0 0 0 0 0 0 0 0 0 0 0 0 0 0 0 0 127 0" result="hardAlpha"/>
<feOffset dx="2" dy="3"/>
<feGaussianBlur stdDeviation="1.5"/>
<feComposite in2="hardAlpha" operator="arithmetic" k2="-1" k3="1"/>
<feColorMatrix type="matrix" values="0 0 0 0 0 0 0 0 0 0 0 0 0 0 0 0 0 0 0.5 0"/>
<feBlend mode="normal" in2="shape" result="effect2_innerShadow_362_165"/>
</filter>
<filter id="filter1_di_362_165" x="532.94" y="212.9" width="128.592" height="71" filterUnits="userSpaceOnUse" color-interpolation-filters="sRGB">
<feFlood flood-opacity="0" result="BackgroundImageFix"/>
<feColorMatrix in="SourceAlpha" type="matrix" values="0 0 0 0 0 0 0 0 0 0 0 0 0 0 0 0 0 0 127 0" result="hardAlpha"/>
<feOffset dy="4"/>
<feGaussianBlur stdDeviation="2"/>
<feComposite in2="hardAlpha" operator="out"/>
<feColorMatrix type="matrix" values="0 0 0 0 0 0 0 0 0 0 0 0 0 0 0 0 0 0 0.25 0"/>
<feBlend mode="normal" in2="BackgroundImageFix" result="effect1_dropShadow_362_165"/>
<feBlend mode="normal" in="SourceGraphic" in2="effect1_dropShadow_362_165" result="shape"/>
<feColorMatrix in="SourceAlpha" type="matrix" values="0 0 0 0 0 0 0 0 0 0 0 0 0 0 0 0 0 0 127 0" result="hardAlpha"/>
<feOffset dx="2" dy="3"/>
<feGaussianBlur stdDeviation="1.5"/>
<feComposite in2="hardAlpha" operator="arithmetic" k2="-1" k3="1"/>
<feColorMatrix type="matrix" values="0 0 0 0 0 0 0 0 0 0 0 0 0 0 0 0 0 0 0.5 0"/>
<feBlend mode="normal" in2="shape" result="effect2_innerShadow_362_165"/>
</filter>
</defs>
</svg>
